<mxfile host="app.diagrams.net" modified="2025-09-13T00:00:00.000Z" agent="5.0" version="21.1.2" etag="abc123" type="device">
  <diagram name="AWS Architecture" id="aws-architecture">
    <mxGraphModel dx="1422" dy="794" grid="1" gridSize="10" guides="1" tooltips="1" connect="1" arrows="1" fold="1" page="1" pageScale="1" pageWidth="1169" pageHeight="827" math="0" shadow="0">
      <root>
        <mxCell id="0"/>
        <mxCell id="1" parent="0"/>
        
        <!-- AWS Cloud -->
        <mxCell id="aws-cloud" value="" style="sketch=0;outlineConnect=0;fontColor=#232F3E;gradientColor=none;strokeColor=#ffffff;fillColor=#232F3E;dashed=0;verticalLabelPosition=middle;verticalAlign=bottom;align=center;html=1;whiteSpace=wrap;fontSize=10;fontStyle=1;spacing=3;shape=mxgraph.aws4.productIcon;prIcon=mxgraph.aws4.aws_cloud;" vertex="1" parent="1">
          <mxGeometry x="60" y="40" width="80" height="100" as="geometry"/>
        </mxCell>
        <mxCell id="aws-cloud-label" value="AWS Cloud" style="text;strokeColor=none;fillColor=none;html=1;fontSize=12;fontStyle=1;verticalAlign=middle;align=left;" vertex="1" parent="1">
          <mxGeometry x="160" y="85" width="100" height="30" as="geometry"/>
        </mxCell>
        
        <!-- VPC -->
        <mxCell id="vpc-container" value="VPC (10.0.0.0/16)" style="points=[[0,0],[0.25,0],[0.5,0],[0.75,0],[1,0],[1,0.25],[1,0.5],[1,0.75],[1,1],[0.75,1],[0.5,1],[0.25,1],[0,1],[0,0.75],[0,0.5],[0,0.25]];outlineConnect=0;gradientColor=none;html=1;whiteSpace=wrap;fontSize=12;fontStyle=0;container=1;pointerEvents=0;collapsible=0;recursiveResize=0;shape=mxgraph.aws4.group;grIcon=mxgraph.aws4.group_vpc;strokeColor=#879196;fillColor=none;verticalAlign=top;align=left;spacingLeft=30;fontColor=#879196;dashed=0;" vertex="1" parent="1">
          <mxGeometry x="100" y="180" width="920" height="580" as="geometry"/>
        </mxCell>
        
        <!-- Internet Gateway -->
        <mxCell id="igw" value="" style="sketch=0;outlineConnect=0;fontColor=#232F3E;gradientColor=none;fillColor=#8C4FFF;strokeColor=none;dashed=0;verticalLabelPosition=bottom;verticalAlign=top;align=center;html=1;fontSize=12;fontStyle=0;aspect=fixed;pointerEvents=1;shape=mxgraph.aws4.internet_gateway;" vertex="1" parent="vpc-container">
          <mxGeometry x="40" y="30" width="78" height="78" as="geometry"/>
        </mxCell>
        <mxCell id="igw-label" value="Internet Gateway" style="text;strokeColor=none;fillColor=none;html=1;fontSize=10;fontStyle=0;verticalAlign=middle;align=center;" vertex="1" parent="vpc-container">
          <mxGeometry x="29" y="115" width="100" height="20" as="geometry"/>
        </mxCell>
        
        <!-- Availability Zone A -->
        <mxCell id="az-a" value="Availability Zone A" style="fillColor=none;strokeColor=#147EBA;dashed=1;verticalAlign=top;fontStyle=0;fontColor=#147EBA;whiteSpace=wrap;html=1;" vertex="1" parent="vpc-container">
          <mxGeometry x="200" y="40" width="320" height="500" as="geometry"/>
        </mxCell>
        
        <!-- Public Subnet A -->
        <mxCell id="public-subnet-a" value="Public Subnet A&#xa;10.0.1.0/24" style="points=[[0,0],[0.25,0],[0.5,0],[0.75,0],[1,0],[1,0.25],[1,0.5],[1,0.75],[1,1],[0.75,1],[0.5,1],[0.25,1],[0,1],[0,0.75],[0,0.5],[0,0.25]];outlineConnect=0;gradientColor=none;html=1;whiteSpace=wrap;fontSize=12;fontStyle=0;container=1;pointerEvents=0;collapsible=0;recursiveResize=0;shape=mxgraph.aws4.group;grIcon=mxgraph.aws4.group_subnet;strokeColor=#879196;fillColor=none;verticalAlign=top;align=left;spacingLeft=30;fontColor=#879196;dashed=0;" vertex="1" parent="vpc-container">
          <mxGeometry x="220" y="70" width="280" height="120" as="geometry"/>
        </mxCell>
        
        <!-- NAT Gateway -->
        <mxCell id="nat-gw" value="" style="sketch=0;outlineConnect=0;fontColor=#232F3E;gradientColor=none;fillColor=#8C4FFF;strokeColor=none;dashed=0;verticalLabelPosition=bottom;verticalAlign=top;align=center;html=1;fontSize=12;fontStyle=0;aspect=fixed;pointerEvents=1;shape=mxgraph.aws4.nat_gateway;" vertex="1" parent="public-subnet-a">
          <mxGeometry x="40" y="30" width="78" height="78" as="geometry"/>
        </mxCell>
        <mxCell id="nat-label" value="NAT Gateway" style="text;strokeColor=none;fillColor=none;html=1;fontSize=10;fontStyle=0;verticalAlign=middle;align=center;" vertex="1" parent="public-subnet-a">
          <mxGeometry x="29" y="115" width="100" height="20" as="geometry"/>
        </mxCell>
        
        <!-- Private Subnet A -->
        <mxCell id="private-subnet-a" value="Private Subnet A&#xa;10.0.11.0/24" style="points=[[0,0],[0.25,0],[0.5,0],[0.75,0],[1,0],[1,0.25],[1,0.5],[1,0.75],[1,1],[0.75,1],[0.5,1],[0.25,1],[0,1],[0,0.75],[0,0.5],[0,0.25]];outlineConnect=0;gradientColor=none;html=1;whiteSpace=wrap;fontSize=12;fontStyle=0;container=1;pointerEvents=0;collapsible=0;recursiveResize=0;shape=mxgraph.aws4.group;grIcon=mxgraph.aws4.group_subnet;strokeColor=#879196;fillColor=none;verticalAlign=top;align=left;spacingLeft=30;fontColor=#879196;dashed=0;" vertex="1" parent="vpc-container">
          <mxGeometry x="220" y="220" width="280" height="160" as="geometry"/>
        </mxCell>
        
        <!-- Lambda Functions -->
        <mxCell id="lambda-create" value="" style="sketch=0;outlineConnect=0;fontColor=#232F3E;gradientColor=none;fillColor=#ED7100;strokeColor=none;dashed=0;verticalLabelPosition=bottom;verticalAlign=top;align=center;html=1;fontSize=12;fontStyle=0;aspect=fixed;pointerEvents=1;shape=mxgraph.aws4.lambda_function;" vertex="1" parent="private-subnet-a">
          <mxGeometry x="40" y="40" width="78" height="78" as="geometry"/>
        </mxCell>
        <mxCell id="lambda-create-label" value="create_table&#xa;Lambda" style="text;strokeColor=none;fillColor=none;html=1;fontSize=10;fontStyle=0;verticalAlign=middle;align=center;" vertex="1" parent="private-subnet-a">
          <mxGeometry x="29" y="125" width="100" height="30" as="geometry"/>
        </mxCell>
        
        <mxCell id="lambda-insert" value="" style="sketch=0;outlineConnect=0;fontColor=#232F3E;gradientColor=none;fillColor=#ED7100;strokeColor=none;dashed=0;verticalLabelPosition=bottom;verticalAlign=top;align=center;html=1;fontSize=12;fontStyle=0;aspect=fixed;pointerEvents=1;shape=mxgraph.aws4.lambda_function;" vertex="1" parent="private-subnet-a">
          <mxGeometry x="160" y="40" width="78" height="78" as="geometry"/>
        </mxCell>
        <mxCell id="lambda-insert-label" value="insert_table&#xa;Lambda" style="text;strokeColor=none;fillColor=none;html=1;fontSize=10;fontStyle=0;verticalAlign=middle;align=center;" vertex="1" parent="private-subnet-a">
          <mxGeometry x="149" y="125" width="100" height="30" as="geometry"/>
        </mxCell>
        
        <!-- Availability Zone B -->
        <mxCell id="az-b" value="Availability Zone B" style="fillColor=none;strokeColor=#147EBA;dashed=1;verticalAlign=top;fontStyle=0;fontColor=#147EBA;whiteSpace=wrap;html=1;" vertex="1" parent="vpc-container">
          <mxGeometry x="560" y="40" width="320" height="500" as="geometry"/>
        </mxCell>
        
        <!-- Public Subnet B -->
        <mxCell id="public-subnet-b" value="Public Subnet B&#xa;10.0.2.0/24" style="points=[[0,0],[0.25,0],[0.5,0],[0.75,0],[1,0],[1,0.25],[1,0.5],[1,0.75],[1,1],[0.75,1],[0.5,1],[0.25,1],[0,1],[0,0.75],[0,0.5],[0,0.25]];outlineConnect=0;gradientColor=none;html=1;whiteSpace=wrap;fontSize=12;fontStyle=0;container=1;pointerEvents=0;collapsible=0;recursiveResize=0;shape=mxgraph.aws4.group;grIcon=mxgraph.aws4.group_subnet;strokeColor=#879196;fillColor=none;verticalAlign=top;align=left;spacingLeft=30;fontColor=#879196;dashed=0;" vertex="1" parent="vpc-container">
          <mxGeometry x="580" y="70" width="280" height="120" as="geometry"/>
        </mxCell>
        
        <!-- Private Subnet B -->
        <mxCell id="private-subnet-b" value="Private Subnet B&#xa;10.0.12.0/24" style="points=[[0,0],[0.25,0],[0.5,0],[0.75,0],[1,0],[1,0.25],[1,0.5],[1,0.75],[1,1],[0.75,1],[0.5,1],[0.25,1],[0,1],[0,0.75],[0,0.5],[0,0.25]];outlineConnect=0;gradientColor=none;html=1;whiteSpace=wrap;fontSize=12;fontStyle=0;container=1;pointerEvents=0;collapsible=0;recursiveResize=0;shape=mxgraph.aws4.group;grIcon=mxgraph.aws4.group_subnet;strokeColor=#879196;fillColor=none;verticalAlign=top;align=left;spacingLeft=30;fontColor=#879196;dashed=0;" vertex="1" parent="vpc-container">
          <mxGeometry x="580" y="220" width="280" height="160" as="geometry"/>
        </mxCell>
        
        <!-- RDS Aurora Cluster -->
        <mxCell id="aurora-cluster" value="" style="sketch=0;outlineConnect=0;fontColor=#232F3E;gradientColor=none;fillColor=#C925D1;strokeColor=none;dashed=0;verticalLabelPosition=bottom;verticalAlign=top;align=center;html=1;fontSize=12;fontStyle=0;aspect=fixed;pointerEvents=1;shape=mxgraph.aws4.aurora_instance;" vertex="1" parent="private-subnet-b">
          <mxGeometry x="100" y="40" width="78" height="78" as="geometry"/>
        </mxCell>
        <mxCell id="aurora-label" value="Aurora&#xa;Serverless v2" style="text;strokeColor=none;fillColor=none;html=1;fontSize=10;fontStyle=0;verticalAlign=middle;align=center;" vertex="1" parent="private-subnet-b">
          <mxGeometry x="89" y="125" width="100" height="30" as="geometry"/>
        </mxCell>
        
        <!-- Security Group -->
        <mxCell id="security-group" value="" style="sketch=0;outlineConnect=0;fontColor=#232F3E;gradientColor=none;fillColor=#FF9900;strokeColor=none;dashed=0;verticalLabelPosition=bottom;verticalAlign=top;align=center;html=1;fontSize=12;fontStyle=0;aspect=fixed;pointerEvents=1;shape=mxgraph.aws4.security_group;" vertex="1" parent="vpc-container">
          <mxGeometry x="40" y="420" width="78" height="93" as="geometry"/>
        </mxCell>
        <mxCell id="security-group-label" value="Security Groups" style="text;strokeColor=none;fillColor=none;html=1;fontSize=10;fontStyle=0;verticalAlign=middle;align=center;" vertex="1" parent="vpc-container">
          <mxGeometry x="29" y="520" width="100" height="20" as="geometry"/>
        </mxCell>
        
        <!-- S3 Bucket -->
        <mxCell id="s3-bucket" value="" style="sketch=0;outlineConnect=0;fontColor=#232F3E;gradientColor=none;fillColor=#7AA116;strokeColor=none;dashed=0;verticalLabelPosition=bottom;verticalAlign=top;align=center;html=1;fontSize=12;fontStyle=0;aspect=fixed;pointerEvents=1;shape=mxgraph.aws4.s3;" vertex="1" parent="1">
          <mxGeometry x="1100" y="300" width="78" height="81" as="geometry"/>
        </mxCell>
        <mxCell id="s3-label" value="S3 Bucket&#xa;(Lambda Code)" style="text;strokeColor=none;fillColor=none;html=1;fontSize=10;fontStyle=0;verticalAlign=middle;align=center;" vertex="1" parent="1">
          <mxGeometry x="1089" y="390" width="100" height="30" as="geometry"/>
        </mxCell>
        
        <!-- Secrets Manager -->
        <mxCell id="secrets-manager" value="" style="sketch=0;outlineConnect=0;fontColor=#232F3E;gradientColor=none;fillColor=#FF9900;strokeColor=none;dashed=0;verticalLabelPosition=bottom;verticalAlign=top;align=center;html=1;fontSize=12;fontStyle=0;aspect=fixed;pointerEvents=1;shape=mxgraph.aws4.secrets_manager;" vertex="1" parent="1">
          <mxGeometry x="1100" y="450" width="78" height="93" as="geometry"/>
        </mxCell>
        <mxCell id="secrets-label" value="Secrets Manager&#xa;(DB Credentials)" style="text;strokeColor=none;fillColor=none;html=1;fontSize=10;fontStyle=0;verticalAlign=middle;align=center;" vertex="1" parent="1">
          <mxGeometry x="1089" y="550" width="100" height="30" as="geometry"/>
        </mxCell>
        
        <!-- GitHub Actions -->
        <mxCell id="github-actions" value="" style="sketch=0;outlineConnect=0;fontColor=#232F3E;gradientColor=none;fillColor=#232F3E;strokeColor=none;dashed=0;verticalLabelPosition=bottom;verticalAlign=top;align=center;html=1;fontSize=12;fontStyle=0;aspect=fixed;pointerEvents=1;shape=mxgraph.aws4.generic_saml_token;" vertex="1" parent="1">
          <mxGeometry x="60" y="600" width="78" height="78" as="geometry"/>
        </mxCell>
        <mxCell id="github-label" value="GitHub Actions&#xa;CI/CD Pipeline" style="text;strokeColor=none;fillColor=none;html=1;fontSize=10;fontStyle=0;verticalAlign=middle;align=center;" vertex="1" parent="1">
          <mxGeometry x="49" y="685" width="100" height="30" as="geometry"/>
        </mxCell>
        
        <!-- CloudFormation -->
        <mxCell id="cloudformation" value="" style="sketch=0;outlineConnect=0;fontColor=#232F3E;gradientColor=none;fillColor=#F58534;strokeColor=none;dashed=0;verticalLabelPosition=bottom;verticalAlign=top;align=center;html=1;fontSize=12;fontStyle=0;aspect=fixed;pointerEvents=1;shape=mxgraph.aws4.cloudformation;" vertex="1" parent="1">
          <mxGeometry x="250" y="600" width="78" height="78" as="geometry"/>
        </mxCell>
        <mxCell id="cloudformation-label" value="CloudFormation&#xa;Templates" style="text;strokeColor=none;fillColor=none;html=1;fontSize=10;fontStyle=0;verticalAlign=middle;align=center;" vertex="1" parent="1">
          <mxGeometry x="239" y="685" width="100" height="30" as="geometry"/>
        </mxCell>
        
        <!-- Connection Lines -->
        <!-- IGW to NAT -->
        <mxCell id="igw-nat-line" value="" style="endArrow=classic;html=1;rounded=0;strokeColor=#879196;" edge="1" parent="1" source="igw" target="nat-gw">
          <mxGeometry width="50" height="50" relative="1" as="geometry">
            <mxPoint x="200" y="400" as="sourcePoint"/>
            <mxPoint x="250" y="350" as="targetPoint"/>
          </mxGeometry>
        </mxCell>
        
        <!-- Lambda to Aurora connection -->
        <mxCell id="lambda-aurora-line" value="" style="endArrow=classic;html=1;rounded=0;strokeColor=#C925D1;" edge="1" parent="1" source="lambda-create" target="aurora-cluster">
          <mxGeometry width="50" height="50" relative="1" as="geometry">
            <mxPoint x="450" y="400" as="sourcePoint"/>
            <mxPoint x="500" y="350" as="targetPoint"/>
          </mxGeometry>
        </mxCell>
        
        <mxCell id="lambda-aurora-line2" value="" style="endArrow=classic;html=1;rounded=0;strokeColor=#C925D1;" edge="1" parent="1" source="lambda-insert" target="aurora-cluster">
          <mxGeometry width="50" height="50" relative="1" as="geometry">
            <mxPoint x="450" y="400" as="sourcePoint"/>
            <mxPoint x="500" y="350" as="targetPoint"/>
          </mxGeometry>
        </mxCell>
        
        <!-- Lambda to S3 connection -->
        <mxCell id="lambda-s3-line" value="" style="endArrow=classic;html=1;rounded=0;strokeColor=#7AA116;" edge="1" parent="1" source="lambda-create" target="s3-bucket">
          <mxGeometry width="50" height="50" relative="1" as="geometry">
            <mxPoint x="450" y="400" as="sourcePoint"/>
            <mxPoint x="500" y="350" as="targetPoint"/>
          </mxGeometry>
        </mxCell>
        
        <!-- Lambda to Secrets Manager connection -->
        <mxCell id="lambda-secrets-line" value="" style="endArrow=classic;html=1;rounded=0;strokeColor=#FF9900;" edge="1" parent="1" source="lambda-insert" target="secrets-manager">
          <mxGeometry width="50" height="50" relative="1" as="geometry">
            <mxPoint x="450" y="400" as="sourcePoint"/>
            <mxPoint x="500" y="350" as="targetPoint"/>
          </mxGeometry>
        </mxCell>
        
        <!-- GitHub Actions to CloudFormation -->
        <mxCell id="github-cf-line" value="" style="endArrow=classic;html=1;rounded=0;strokeColor=#F58534;" edge="1" parent="1" source="github-actions" target="cloudformation">
          <mxGeometry width="50" height="50" relative="1" as="geometry">
            <mxPoint x="200" y="650" as="sourcePoint"/>
            <mxPoint x="250" y="600" as="targetPoint"/>
          </mxGeometry>
        </mxCell>
        
        <!-- CloudFormation to VPC -->
        <mxCell id="cf-vpc-line" value="" style="endArrow=classic;html=1;rounded=0;strokeColor=#F58534;" edge="1" parent="1" source="cloudformation" target="vpc-container">
          <mxGeometry width="50" height="50" relative="1" as="geometry">
            <mxPoint x="350" y="600" as="sourcePoint"/>
            <mxPoint x="400" y="550" as="targetPoint"/>
          </mxGeometry>
        </mxCell>
        
      </root>
    </mxGraphModel>
  </diagram>
</mxfile>